<mxfile host="app.diagrams.net" modified="2022-12-18T23:18:24.222Z" agent="5.0 (Windows NT 10.0; Win64; x64) AppleWebKit/537.36 (KHTML, like Gecko) Chrome/108.0.0.0 Safari/537.36" etag="uMPhzOuBX7xfldeYGCx0" version="20.7.4" type="github">
  <diagram name="Page-1" id="0783ab3e-0a74-02c8-0abd-f7b4e66b4bec">
    <mxGraphModel dx="2705" dy="1149" grid="1" gridSize="10" guides="1" tooltips="1" connect="1" arrows="1" fold="1" page="1" pageScale="1" pageWidth="850" pageHeight="1100" background="none" math="0" shadow="0">
      <root>
        <mxCell id="0" />
        <mxCell id="1" parent="0" />
        <mxCell id="Tt8dJ6z3QPdiX9zE3w82-25" value="" style="edgeStyle=orthogonalEdgeStyle;html=1;verticalAlign=bottom;endArrow=open;endSize=8;strokeColor=#ff0000;rounded=0;" edge="1" parent="1">
          <mxGeometry relative="1" as="geometry">
            <mxPoint x="425" y="180" as="targetPoint" />
            <mxPoint x="425" y="120" as="sourcePoint" />
          </mxGeometry>
        </mxCell>
        <mxCell id="Tt8dJ6z3QPdiX9zE3w82-38" value="Display Homescreen" style="rounded=1;whiteSpace=wrap;html=1;arcSize=40;fontColor=#000000;fillColor=#ffffc0;strokeColor=#ff0000;labelBackgroundColor=none;" vertex="1" parent="1">
          <mxGeometry x="365" y="390" width="120" height="40" as="geometry" />
        </mxCell>
        <mxCell id="Tt8dJ6z3QPdiX9zE3w82-39" value="" style="edgeStyle=orthogonalEdgeStyle;html=1;verticalAlign=bottom;endArrow=open;endSize=8;strokeColor=#ff0000;rounded=0;entryX=0.5;entryY=0;entryDx=0;entryDy=0;" edge="1" source="Tt8dJ6z3QPdiX9zE3w82-38" parent="1" target="Tt8dJ6z3QPdiX9zE3w82-129">
          <mxGeometry relative="1" as="geometry">
            <mxPoint x="425" y="500" as="targetPoint" />
            <Array as="points" />
          </mxGeometry>
        </mxCell>
        <mxCell id="Tt8dJ6z3QPdiX9zE3w82-52" value="" style="edgeStyle=orthogonalEdgeStyle;rounded=0;orthogonalLoop=1;jettySize=auto;html=1;strokeColor=#FF3333;" edge="1" parent="1" source="Tt8dJ6z3QPdiX9zE3w82-42" target="Tt8dJ6z3QPdiX9zE3w82-51">
          <mxGeometry relative="1" as="geometry" />
        </mxCell>
        <mxCell id="Tt8dJ6z3QPdiX9zE3w82-53" style="edgeStyle=orthogonalEdgeStyle;rounded=0;orthogonalLoop=1;jettySize=auto;html=1;exitX=0;exitY=0.5;exitDx=0;exitDy=0;strokeColor=#FF3333;entryX=0.5;entryY=0;entryDx=0;entryDy=0;" edge="1" parent="1" source="Tt8dJ6z3QPdiX9zE3w82-42" target="Tt8dJ6z3QPdiX9zE3w82-54">
          <mxGeometry relative="1" as="geometry">
            <mxPoint x="110" y="460" as="targetPoint" />
          </mxGeometry>
        </mxCell>
        <mxCell id="Tt8dJ6z3QPdiX9zE3w82-137" style="edgeStyle=orthogonalEdgeStyle;rounded=0;orthogonalLoop=1;jettySize=auto;html=1;exitX=0.75;exitY=0;exitDx=0;exitDy=0;entryX=0;entryY=0;entryDx=0;entryDy=0;strokeColor=#FF3333;" edge="1" parent="1" source="Tt8dJ6z3QPdiX9zE3w82-42" target="Tt8dJ6z3QPdiX9zE3w82-129">
          <mxGeometry relative="1" as="geometry">
            <Array as="points">
              <mxPoint x="40" y="380" />
              <mxPoint x="360" y="380" />
              <mxPoint x="360" y="540" />
            </Array>
          </mxGeometry>
        </mxCell>
        <mxCell id="Tt8dJ6z3QPdiX9zE3w82-42" value="Manage Customers" style="rounded=1;whiteSpace=wrap;html=1;arcSize=40;fontColor=#000000;fillColor=#ffffc0;strokeColor=#ff0000;labelBackgroundColor=none;" vertex="1" parent="1">
          <mxGeometry x="-50" y="390" width="120" height="40" as="geometry" />
        </mxCell>
        <mxCell id="Tt8dJ6z3QPdiX9zE3w82-91" style="edgeStyle=orthogonalEdgeStyle;rounded=0;orthogonalLoop=1;jettySize=auto;html=1;exitX=0.5;exitY=1;exitDx=0;exitDy=0;entryX=0.5;entryY=0;entryDx=0;entryDy=0;strokeColor=#FF3333;" edge="1" parent="1" source="Tt8dJ6z3QPdiX9zE3w82-43" target="Tt8dJ6z3QPdiX9zE3w82-82">
          <mxGeometry relative="1" as="geometry" />
        </mxCell>
        <mxCell id="Tt8dJ6z3QPdiX9zE3w82-135" style="edgeStyle=orthogonalEdgeStyle;rounded=0;orthogonalLoop=1;jettySize=auto;html=1;exitX=0.25;exitY=1;exitDx=0;exitDy=0;strokeColor=#FF3333;" edge="1" parent="1" source="Tt8dJ6z3QPdiX9zE3w82-43" target="Tt8dJ6z3QPdiX9zE3w82-129">
          <mxGeometry relative="1" as="geometry">
            <Array as="points">
              <mxPoint x="870" y="430" />
              <mxPoint x="870" y="590" />
            </Array>
          </mxGeometry>
        </mxCell>
        <mxCell id="Tt8dJ6z3QPdiX9zE3w82-43" value="Find Customer" style="rounded=1;whiteSpace=wrap;html=1;arcSize=40;fontColor=#000000;fillColor=#ffffc0;strokeColor=#ff0000;labelBackgroundColor=none;" vertex="1" parent="1">
          <mxGeometry x="850" y="390" width="120" height="40" as="geometry" />
        </mxCell>
        <mxCell id="Tt8dJ6z3QPdiX9zE3w82-88" style="edgeStyle=orthogonalEdgeStyle;rounded=0;orthogonalLoop=1;jettySize=auto;html=1;exitX=0.75;exitY=1;exitDx=0;exitDy=0;entryX=0.5;entryY=0;entryDx=0;entryDy=0;strokeColor=#FF3333;" edge="1" parent="1" source="Tt8dJ6z3QPdiX9zE3w82-44" target="Tt8dJ6z3QPdiX9zE3w82-46">
          <mxGeometry relative="1" as="geometry">
            <Array as="points">
              <mxPoint x="449.94" y="810" />
              <mxPoint x="519.94" y="810" />
              <mxPoint x="519.94" y="870" />
            </Array>
          </mxGeometry>
        </mxCell>
        <mxCell id="Tt8dJ6z3QPdiX9zE3w82-89" style="edgeStyle=orthogonalEdgeStyle;rounded=0;orthogonalLoop=1;jettySize=auto;html=1;exitX=0.25;exitY=1;exitDx=0;exitDy=0;entryX=0.5;entryY=0;entryDx=0;entryDy=0;strokeColor=#FF3333;" edge="1" parent="1" source="Tt8dJ6z3QPdiX9zE3w82-44" target="Tt8dJ6z3QPdiX9zE3w82-47">
          <mxGeometry relative="1" as="geometry">
            <Array as="points">
              <mxPoint x="389.94" y="710" />
              <mxPoint x="319.94" y="710" />
            </Array>
          </mxGeometry>
        </mxCell>
        <mxCell id="Tt8dJ6z3QPdiX9zE3w82-96" style="edgeStyle=orthogonalEdgeStyle;rounded=0;orthogonalLoop=1;jettySize=auto;html=1;exitX=0.5;exitY=1;exitDx=0;exitDy=0;entryX=0.5;entryY=0;entryDx=0;entryDy=0;strokeColor=#FF3333;" edge="1" parent="1" source="Tt8dJ6z3QPdiX9zE3w82-44" target="Tt8dJ6z3QPdiX9zE3w82-95">
          <mxGeometry relative="1" as="geometry" />
        </mxCell>
        <mxCell id="Tt8dJ6z3QPdiX9zE3w82-136" style="edgeStyle=orthogonalEdgeStyle;rounded=0;orthogonalLoop=1;jettySize=auto;html=1;exitX=0.25;exitY=0;exitDx=0;exitDy=0;entryX=0;entryY=1;entryDx=0;entryDy=0;strokeColor=#FF3333;" edge="1" parent="1" source="Tt8dJ6z3QPdiX9zE3w82-44" target="Tt8dJ6z3QPdiX9zE3w82-129">
          <mxGeometry x="-0.4545" y="-10" relative="1" as="geometry">
            <Array as="points">
              <mxPoint x="393" y="660" />
            </Array>
            <mxPoint y="1" as="offset" />
          </mxGeometry>
        </mxCell>
        <mxCell id="Tt8dJ6z3QPdiX9zE3w82-44" value="Show deposit data" style="rounded=1;whiteSpace=wrap;html=1;arcSize=40;fontColor=#000000;fillColor=#ffffc0;strokeColor=#ff0000;labelBackgroundColor=none;" vertex="1" parent="1">
          <mxGeometry x="365" y="660" width="120" height="40" as="geometry" />
        </mxCell>
        <mxCell id="Tt8dJ6z3QPdiX9zE3w82-46" value="Add product to deposit" style="rounded=1;whiteSpace=wrap;html=1;arcSize=40;fontColor=#000000;fillColor=#ffffc0;strokeColor=#ff0000;labelBackgroundColor=none;" vertex="1" parent="1">
          <mxGeometry x="539.94" y="870" width="120" height="40" as="geometry" />
        </mxCell>
        <mxCell id="Tt8dJ6z3QPdiX9zE3w82-116" style="edgeStyle=orthogonalEdgeStyle;rounded=0;orthogonalLoop=1;jettySize=auto;html=1;exitX=0.5;exitY=1;exitDx=0;exitDy=0;entryX=0.5;entryY=0;entryDx=0;entryDy=0;strokeColor=#FF3333;" edge="1" parent="1" source="Tt8dJ6z3QPdiX9zE3w82-47" target="Tt8dJ6z3QPdiX9zE3w82-115">
          <mxGeometry relative="1" as="geometry" />
        </mxCell>
        <mxCell id="Tt8dJ6z3QPdiX9zE3w82-47" value="Remove product from deposit" style="rounded=1;whiteSpace=wrap;html=1;arcSize=40;fontColor=#000000;fillColor=#ffffc0;strokeColor=#ff0000;labelBackgroundColor=none;" vertex="1" parent="1">
          <mxGeometry x="259.94" y="730" width="120" height="40" as="geometry" />
        </mxCell>
        <mxCell id="Tt8dJ6z3QPdiX9zE3w82-106" style="edgeStyle=orthogonalEdgeStyle;rounded=0;orthogonalLoop=1;jettySize=auto;html=1;exitX=0;exitY=0.5;exitDx=0;exitDy=0;entryX=1;entryY=0.5;entryDx=0;entryDy=0;strokeColor=#FF3333;" edge="1" parent="1" source="Tt8dJ6z3QPdiX9zE3w82-51" target="Tt8dJ6z3QPdiX9zE3w82-104">
          <mxGeometry relative="1" as="geometry" />
        </mxCell>
        <mxCell id="Tt8dJ6z3QPdiX9zE3w82-51" value="Register new Customer" style="rounded=1;whiteSpace=wrap;html=1;arcSize=40;fontColor=#000000;fillColor=#ffffc0;strokeColor=#ff0000;labelBackgroundColor=none;" vertex="1" parent="1">
          <mxGeometry x="-50" y="730" width="120" height="40" as="geometry" />
        </mxCell>
        <mxCell id="Tt8dJ6z3QPdiX9zE3w82-109" style="edgeStyle=orthogonalEdgeStyle;rounded=0;orthogonalLoop=1;jettySize=auto;html=1;exitX=0;exitY=0.5;exitDx=0;exitDy=0;entryX=1;entryY=0.5;entryDx=0;entryDy=0;strokeColor=#FF3333;" edge="1" parent="1" source="Tt8dJ6z3QPdiX9zE3w82-54" target="Tt8dJ6z3QPdiX9zE3w82-103">
          <mxGeometry relative="1" as="geometry" />
        </mxCell>
        <mxCell id="Tt8dJ6z3QPdiX9zE3w82-54" value="Remove Customer" style="rounded=1;whiteSpace=wrap;html=1;arcSize=40;fontColor=#000000;fillColor=#ffffc0;strokeColor=#ff0000;labelBackgroundColor=none;" vertex="1" parent="1">
          <mxGeometry x="-180" y="490" width="120" height="40" as="geometry" />
        </mxCell>
        <mxCell id="Tt8dJ6z3QPdiX9zE3w82-80" style="edgeStyle=orthogonalEdgeStyle;rounded=0;orthogonalLoop=1;jettySize=auto;html=1;exitX=0.5;exitY=1;exitDx=0;exitDy=0;entryX=0.5;entryY=0;entryDx=0;entryDy=0;strokeColor=#FF3333;" edge="1" parent="1" source="Tt8dJ6z3QPdiX9zE3w82-72" target="Tt8dJ6z3QPdiX9zE3w82-76">
          <mxGeometry relative="1" as="geometry" />
        </mxCell>
        <mxCell id="Tt8dJ6z3QPdiX9zE3w82-72" value="Sign in" style="rounded=1;whiteSpace=wrap;html=1;arcSize=40;fontColor=#000000;fillColor=#ffffc0;strokeColor=#ff0000;labelBackgroundColor=none;" vertex="1" parent="1">
          <mxGeometry x="365" y="190" width="120" height="40" as="geometry" />
        </mxCell>
        <mxCell id="Tt8dJ6z3QPdiX9zE3w82-76" value="Sign in Successful" style="rhombus;whiteSpace=wrap;html=1;fillColor=#ffffc0;strokeColor=#ff0000;labelBackgroundColor=none;" vertex="1" parent="1">
          <mxGeometry x="385" y="270" width="80" height="40" as="geometry" />
        </mxCell>
        <mxCell id="Tt8dJ6z3QPdiX9zE3w82-77" value="no" style="edgeStyle=orthogonalEdgeStyle;html=1;align=left;verticalAlign=bottom;endArrow=open;endSize=8;strokeColor=#ff0000;rounded=0;entryX=1;entryY=0.5;entryDx=0;entryDy=0;exitX=1;exitY=0.5;exitDx=0;exitDy=0;" edge="1" source="Tt8dJ6z3QPdiX9zE3w82-76" parent="1" target="Tt8dJ6z3QPdiX9zE3w82-72">
          <mxGeometry x="-1" relative="1" as="geometry">
            <mxPoint x="500" y="270" as="targetPoint" />
            <Array as="points">
              <mxPoint x="510" y="290" />
              <mxPoint x="510" y="210" />
            </Array>
          </mxGeometry>
        </mxCell>
        <mxCell id="Tt8dJ6z3QPdiX9zE3w82-78" value="yes" style="edgeStyle=orthogonalEdgeStyle;html=1;align=left;verticalAlign=top;endArrow=open;endSize=8;strokeColor=#ff0000;rounded=0;" edge="1" source="Tt8dJ6z3QPdiX9zE3w82-76" parent="1">
          <mxGeometry x="-1" relative="1" as="geometry">
            <mxPoint x="425" y="390" as="targetPoint" />
            <Array as="points">
              <mxPoint x="425" y="370" />
            </Array>
          </mxGeometry>
        </mxCell>
        <mxCell id="Tt8dJ6z3QPdiX9zE3w82-92" value="no" style="edgeStyle=orthogonalEdgeStyle;rounded=0;orthogonalLoop=1;jettySize=auto;html=1;exitX=1;exitY=0.5;exitDx=0;exitDy=0;entryX=1;entryY=0.5;entryDx=0;entryDy=0;strokeColor=#FF3333;" edge="1" parent="1" source="Tt8dJ6z3QPdiX9zE3w82-82" target="Tt8dJ6z3QPdiX9zE3w82-43">
          <mxGeometry relative="1" as="geometry">
            <Array as="points">
              <mxPoint x="990" y="490" />
              <mxPoint x="990" y="410" />
            </Array>
          </mxGeometry>
        </mxCell>
        <mxCell id="Tt8dJ6z3QPdiX9zE3w82-94" style="edgeStyle=orthogonalEdgeStyle;rounded=0;orthogonalLoop=1;jettySize=auto;html=1;exitX=0.5;exitY=1;exitDx=0;exitDy=0;entryX=0.5;entryY=0;entryDx=0;entryDy=0;strokeColor=#FF3333;" edge="1" parent="1" source="Tt8dJ6z3QPdiX9zE3w82-82" target="Tt8dJ6z3QPdiX9zE3w82-93">
          <mxGeometry relative="1" as="geometry" />
        </mxCell>
        <mxCell id="Tt8dJ6z3QPdiX9zE3w82-101" value="yes" style="edgeLabel;html=1;align=center;verticalAlign=middle;resizable=0;points=[];" vertex="1" connectable="0" parent="Tt8dJ6z3QPdiX9zE3w82-94">
          <mxGeometry x="-0.1467" y="-1" relative="1" as="geometry">
            <mxPoint as="offset" />
          </mxGeometry>
        </mxCell>
        <mxCell id="Tt8dJ6z3QPdiX9zE3w82-82" value="Customer found" style="rhombus;whiteSpace=wrap;html=1;fillColor=#ffffc0;strokeColor=#ff0000;labelBackgroundColor=none;" vertex="1" parent="1">
          <mxGeometry x="870" y="470" width="80" height="40" as="geometry" />
        </mxCell>
        <mxCell id="Tt8dJ6z3QPdiX9zE3w82-93" value="Show Customer data" style="rounded=1;whiteSpace=wrap;html=1;arcSize=40;fontColor=#000000;fillColor=#ffffc0;strokeColor=#ff0000;labelBackgroundColor=none;" vertex="1" parent="1">
          <mxGeometry x="930" y="580" width="120" height="40" as="geometry" />
        </mxCell>
        <mxCell id="Tt8dJ6z3QPdiX9zE3w82-127" style="edgeStyle=orthogonalEdgeStyle;rounded=0;orthogonalLoop=1;jettySize=auto;html=1;exitX=0.5;exitY=1;exitDx=0;exitDy=0;entryX=0.5;entryY=0;entryDx=0;entryDy=0;strokeColor=#FF3333;" edge="1" parent="1" source="Tt8dJ6z3QPdiX9zE3w82-95" target="Tt8dJ6z3QPdiX9zE3w82-97">
          <mxGeometry relative="1" as="geometry" />
        </mxCell>
        <mxCell id="Tt8dJ6z3QPdiX9zE3w82-95" value="Find Product" style="rounded=1;whiteSpace=wrap;html=1;arcSize=40;fontColor=#000000;fillColor=#ffffc0;strokeColor=#ff0000;labelBackgroundColor=none;" vertex="1" parent="1">
          <mxGeometry x="359.94" y="830" width="120" height="40" as="geometry" />
        </mxCell>
        <mxCell id="Tt8dJ6z3QPdiX9zE3w82-98" style="edgeStyle=orthogonalEdgeStyle;rounded=0;orthogonalLoop=1;jettySize=auto;html=1;exitX=1;exitY=0.5;exitDx=0;exitDy=0;entryX=1;entryY=0.5;entryDx=0;entryDy=0;strokeColor=#FF3333;" edge="1" parent="1" source="Tt8dJ6z3QPdiX9zE3w82-97" target="Tt8dJ6z3QPdiX9zE3w82-95">
          <mxGeometry relative="1" as="geometry">
            <Array as="points">
              <mxPoint x="489.94" y="940" />
              <mxPoint x="489.94" y="850" />
            </Array>
          </mxGeometry>
        </mxCell>
        <mxCell id="Tt8dJ6z3QPdiX9zE3w82-99" value="no" style="edgeLabel;html=1;align=center;verticalAlign=middle;resizable=0;points=[];" vertex="1" connectable="0" parent="Tt8dJ6z3QPdiX9zE3w82-98">
          <mxGeometry relative="1" as="geometry">
            <mxPoint as="offset" />
          </mxGeometry>
        </mxCell>
        <mxCell id="Tt8dJ6z3QPdiX9zE3w82-100" value="yes" style="edgeStyle=orthogonalEdgeStyle;rounded=0;orthogonalLoop=1;jettySize=auto;html=1;exitX=0.5;exitY=1;exitDx=0;exitDy=0;strokeColor=#FF3333;" edge="1" parent="1" source="Tt8dJ6z3QPdiX9zE3w82-97">
          <mxGeometry relative="1" as="geometry">
            <mxPoint x="419.94" y="1020" as="targetPoint" />
          </mxGeometry>
        </mxCell>
        <mxCell id="Tt8dJ6z3QPdiX9zE3w82-97" value="Product found" style="rhombus;whiteSpace=wrap;html=1;fillColor=#ffffc0;strokeColor=#ff0000;labelBackgroundColor=none;" vertex="1" parent="1">
          <mxGeometry x="379.94" y="920" width="80" height="40" as="geometry" />
        </mxCell>
        <mxCell id="Tt8dJ6z3QPdiX9zE3w82-102" value="Show product data" style="rounded=1;whiteSpace=wrap;html=1;arcSize=40;fontColor=#000000;fillColor=#ffffc0;strokeColor=#ff0000;labelBackgroundColor=none;" vertex="1" parent="1">
          <mxGeometry x="359.94" y="1020" width="120" height="40" as="geometry" />
        </mxCell>
        <mxCell id="Tt8dJ6z3QPdiX9zE3w82-110" style="edgeStyle=orthogonalEdgeStyle;rounded=0;orthogonalLoop=1;jettySize=auto;html=1;exitX=0.5;exitY=0;exitDx=0;exitDy=0;entryX=0.5;entryY=0;entryDx=0;entryDy=0;strokeColor=#FF3333;" edge="1" parent="1" source="Tt8dJ6z3QPdiX9zE3w82-103" target="Tt8dJ6z3QPdiX9zE3w82-42">
          <mxGeometry relative="1" as="geometry" />
        </mxCell>
        <mxCell id="Tt8dJ6z3QPdiX9zE3w82-113" value="yes" style="edgeLabel;html=1;align=center;verticalAlign=middle;resizable=0;points=[];" vertex="1" connectable="0" parent="Tt8dJ6z3QPdiX9zE3w82-110">
          <mxGeometry x="-0.0605" y="3" relative="1" as="geometry">
            <mxPoint as="offset" />
          </mxGeometry>
        </mxCell>
        <mxCell id="Tt8dJ6z3QPdiX9zE3w82-111" style="edgeStyle=orthogonalEdgeStyle;rounded=0;orthogonalLoop=1;jettySize=auto;html=1;exitX=0.5;exitY=1;exitDx=0;exitDy=0;entryX=0.575;entryY=1;entryDx=0;entryDy=0;entryPerimeter=0;strokeColor=#FF3333;" edge="1" parent="1" source="Tt8dJ6z3QPdiX9zE3w82-103" target="Tt8dJ6z3QPdiX9zE3w82-54">
          <mxGeometry relative="1" as="geometry" />
        </mxCell>
        <mxCell id="Tt8dJ6z3QPdiX9zE3w82-112" value="no" style="edgeLabel;html=1;align=center;verticalAlign=middle;resizable=0;points=[];" vertex="1" connectable="0" parent="Tt8dJ6z3QPdiX9zE3w82-111">
          <mxGeometry x="0.1388" y="-5" relative="1" as="geometry">
            <mxPoint as="offset" />
          </mxGeometry>
        </mxCell>
        <mxCell id="Tt8dJ6z3QPdiX9zE3w82-103" value="Customer Removed" style="rhombus;whiteSpace=wrap;html=1;fillColor=#ffffc0;strokeColor=#ff0000;labelBackgroundColor=none;" vertex="1" parent="1">
          <mxGeometry x="-320" y="490" width="80" height="40" as="geometry" />
        </mxCell>
        <mxCell id="Tt8dJ6z3QPdiX9zE3w82-107" value="no" style="edgeStyle=orthogonalEdgeStyle;rounded=0;orthogonalLoop=1;jettySize=auto;html=1;exitX=0.5;exitY=1;exitDx=0;exitDy=0;entryX=0.5;entryY=1;entryDx=0;entryDy=0;strokeColor=#FF3333;" edge="1" parent="1" source="Tt8dJ6z3QPdiX9zE3w82-104" target="Tt8dJ6z3QPdiX9zE3w82-51">
          <mxGeometry relative="1" as="geometry">
            <Array as="points">
              <mxPoint x="-160" y="790" />
              <mxPoint x="10" y="790" />
            </Array>
          </mxGeometry>
        </mxCell>
        <mxCell id="Tt8dJ6z3QPdiX9zE3w82-108" style="edgeStyle=orthogonalEdgeStyle;rounded=0;orthogonalLoop=1;jettySize=auto;html=1;exitX=0.5;exitY=0;exitDx=0;exitDy=0;entryX=0.333;entryY=1;entryDx=0;entryDy=0;entryPerimeter=0;strokeColor=#FF3333;" edge="1" parent="1" source="Tt8dJ6z3QPdiX9zE3w82-104" target="Tt8dJ6z3QPdiX9zE3w82-42">
          <mxGeometry relative="1" as="geometry">
            <Array as="points">
              <mxPoint x="-160" y="640" />
              <mxPoint x="-10" y="640" />
            </Array>
          </mxGeometry>
        </mxCell>
        <mxCell id="Tt8dJ6z3QPdiX9zE3w82-114" value="yes" style="edgeLabel;html=1;align=center;verticalAlign=middle;resizable=0;points=[];" vertex="1" connectable="0" parent="Tt8dJ6z3QPdiX9zE3w82-108">
          <mxGeometry x="-0.214" y="-2" relative="1" as="geometry">
            <mxPoint y="-2" as="offset" />
          </mxGeometry>
        </mxCell>
        <mxCell id="Tt8dJ6z3QPdiX9zE3w82-104" value="Customer Registered" style="rhombus;whiteSpace=wrap;html=1;fillColor=#ffffc0;strokeColor=#ff0000;labelBackgroundColor=none;" vertex="1" parent="1">
          <mxGeometry x="-200" y="730" width="80" height="40" as="geometry" />
        </mxCell>
        <mxCell id="Tt8dJ6z3QPdiX9zE3w82-117" style="edgeStyle=orthogonalEdgeStyle;rounded=0;orthogonalLoop=1;jettySize=auto;html=1;exitX=0;exitY=0.5;exitDx=0;exitDy=0;entryX=0;entryY=0.5;entryDx=0;entryDy=0;strokeColor=#FF3333;" edge="1" parent="1" source="Tt8dJ6z3QPdiX9zE3w82-115" target="Tt8dJ6z3QPdiX9zE3w82-44">
          <mxGeometry relative="1" as="geometry">
            <Array as="points">
              <mxPoint x="249.94" y="810" />
              <mxPoint x="249.94" y="680" />
            </Array>
          </mxGeometry>
        </mxCell>
        <mxCell id="Tt8dJ6z3QPdiX9zE3w82-118" value="yes" style="edgeLabel;html=1;align=center;verticalAlign=middle;resizable=0;points=[];" vertex="1" connectable="0" parent="Tt8dJ6z3QPdiX9zE3w82-117">
          <mxGeometry x="-0.0593" y="-1" relative="1" as="geometry">
            <mxPoint as="offset" />
          </mxGeometry>
        </mxCell>
        <mxCell id="Tt8dJ6z3QPdiX9zE3w82-119" style="edgeStyle=orthogonalEdgeStyle;rounded=0;orthogonalLoop=1;jettySize=auto;html=1;exitX=1;exitY=0.5;exitDx=0;exitDy=0;entryX=1;entryY=0.5;entryDx=0;entryDy=0;strokeColor=#FF3333;" edge="1" parent="1" source="Tt8dJ6z3QPdiX9zE3w82-115" target="Tt8dJ6z3QPdiX9zE3w82-47">
          <mxGeometry relative="1" as="geometry">
            <Array as="points">
              <mxPoint x="389.94" y="810" />
              <mxPoint x="389.94" y="750" />
            </Array>
          </mxGeometry>
        </mxCell>
        <mxCell id="Tt8dJ6z3QPdiX9zE3w82-120" value="no" style="edgeLabel;html=1;align=center;verticalAlign=middle;resizable=0;points=[];" vertex="1" connectable="0" parent="Tt8dJ6z3QPdiX9zE3w82-119">
          <mxGeometry x="-0.1" y="2" relative="1" as="geometry">
            <mxPoint as="offset" />
          </mxGeometry>
        </mxCell>
        <mxCell id="Tt8dJ6z3QPdiX9zE3w82-115" value="Product Removed" style="rhombus;whiteSpace=wrap;html=1;fillColor=#ffffc0;strokeColor=#ff0000;labelBackgroundColor=none;" vertex="1" parent="1">
          <mxGeometry x="279.94" y="790" width="80" height="40" as="geometry" />
        </mxCell>
        <mxCell id="Tt8dJ6z3QPdiX9zE3w82-123" style="edgeStyle=orthogonalEdgeStyle;rounded=0;orthogonalLoop=1;jettySize=auto;html=1;exitX=0;exitY=0.5;exitDx=0;exitDy=0;entryX=0;entryY=0.5;entryDx=0;entryDy=0;strokeColor=#FF3333;" edge="1" parent="1" source="Tt8dJ6z3QPdiX9zE3w82-121" target="Tt8dJ6z3QPdiX9zE3w82-46">
          <mxGeometry relative="1" as="geometry" />
        </mxCell>
        <mxCell id="Tt8dJ6z3QPdiX9zE3w82-126" value="no" style="edgeLabel;html=1;align=center;verticalAlign=middle;resizable=0;points=[];" vertex="1" connectable="0" parent="Tt8dJ6z3QPdiX9zE3w82-123">
          <mxGeometry x="-0.0615" y="2" relative="1" as="geometry">
            <mxPoint as="offset" />
          </mxGeometry>
        </mxCell>
        <mxCell id="Tt8dJ6z3QPdiX9zE3w82-124" style="edgeStyle=orthogonalEdgeStyle;rounded=0;orthogonalLoop=1;jettySize=auto;html=1;exitX=1;exitY=0.5;exitDx=0;exitDy=0;entryX=1;entryY=0.5;entryDx=0;entryDy=0;strokeColor=#FF3333;" edge="1" parent="1" source="Tt8dJ6z3QPdiX9zE3w82-121" target="Tt8dJ6z3QPdiX9zE3w82-44">
          <mxGeometry relative="1" as="geometry">
            <Array as="points">
              <mxPoint x="680" y="960" />
              <mxPoint x="680" y="800" />
              <mxPoint x="500" y="800" />
              <mxPoint x="500" y="680" />
            </Array>
          </mxGeometry>
        </mxCell>
        <mxCell id="Tt8dJ6z3QPdiX9zE3w82-125" value="yes" style="edgeLabel;html=1;align=center;verticalAlign=middle;resizable=0;points=[];" vertex="1" connectable="0" parent="Tt8dJ6z3QPdiX9zE3w82-124">
          <mxGeometry x="-0.6923" y="1" relative="1" as="geometry">
            <mxPoint as="offset" />
          </mxGeometry>
        </mxCell>
        <mxCell id="Tt8dJ6z3QPdiX9zE3w82-121" value="Product Added" style="rhombus;whiteSpace=wrap;html=1;fillColor=#ffffc0;strokeColor=#ff0000;labelBackgroundColor=none;" vertex="1" parent="1">
          <mxGeometry x="559.94" y="940" width="80" height="40" as="geometry" />
        </mxCell>
        <mxCell id="Tt8dJ6z3QPdiX9zE3w82-128" value="Actor" style="shape=umlActor;verticalLabelPosition=bottom;verticalAlign=top;html=1;labelBackgroundColor=none;fillColor=#000000;gradientColor=none;" vertex="1" parent="1">
          <mxGeometry x="410" y="50" width="30" height="60" as="geometry" />
        </mxCell>
        <mxCell id="Tt8dJ6z3QPdiX9zE3w82-132" style="edgeStyle=orthogonalEdgeStyle;rounded=0;orthogonalLoop=1;jettySize=auto;html=1;exitX=1;exitY=0.5;exitDx=0;exitDy=0;entryX=0;entryY=0.5;entryDx=0;entryDy=0;strokeColor=#FF3333;" edge="1" parent="1" source="Tt8dJ6z3QPdiX9zE3w82-129" target="Tt8dJ6z3QPdiX9zE3w82-43">
          <mxGeometry relative="1" as="geometry" />
        </mxCell>
        <mxCell id="Tt8dJ6z3QPdiX9zE3w82-133" style="edgeStyle=orthogonalEdgeStyle;rounded=0;orthogonalLoop=1;jettySize=auto;html=1;exitX=0;exitY=0.5;exitDx=0;exitDy=0;entryX=1;entryY=0.5;entryDx=0;entryDy=0;strokeColor=#FF3333;" edge="1" parent="1" source="Tt8dJ6z3QPdiX9zE3w82-129" target="Tt8dJ6z3QPdiX9zE3w82-42">
          <mxGeometry relative="1" as="geometry" />
        </mxCell>
        <mxCell id="Tt8dJ6z3QPdiX9zE3w82-134" style="edgeStyle=orthogonalEdgeStyle;rounded=0;orthogonalLoop=1;jettySize=auto;html=1;exitX=0.5;exitY=1;exitDx=0;exitDy=0;entryX=0.5;entryY=0;entryDx=0;entryDy=0;strokeColor=#FF3333;" edge="1" parent="1" source="Tt8dJ6z3QPdiX9zE3w82-129" target="Tt8dJ6z3QPdiX9zE3w82-44">
          <mxGeometry relative="1" as="geometry" />
        </mxCell>
        <mxCell id="Tt8dJ6z3QPdiX9zE3w82-129" value="Click navbar Buttons" style="rhombus;whiteSpace=wrap;html=1;fillColor=#ffffc0;strokeColor=#ff0000;labelBackgroundColor=none;" vertex="1" parent="1">
          <mxGeometry x="362" y="520" width="125" height="80" as="geometry" />
        </mxCell>
      </root>
    </mxGraphModel>
  </diagram>
</mxfile>
